<svg width="512" height="512" viewBox="0 0 512 512" xmlns="http://www.w3.org/2000/svg">
    <defs>
        <!-- Blue Gradient for Wings -->
        <linearGradient id="blueGrad" x1="0%" y1="0%" x2="100%" y2="100%">
            <stop offset="0%" style="stop-color:#00a8e8;stop-opacity:1" />
            <stop offset="100%" style="stop-color:#004e92;stop-opacity:1" />
        </linearGradient>
        
        <!-- Red Gradient for Accent -->
        <linearGradient id="redGrad" x1="0%" y1="0%" x2="100%" y2="0%">
            <stop offset="0%" style="stop-color:#ff416c;stop-opacity:1" />
            <stop offset="100%" style="stop-color:#ff4b2b;stop-opacity:1" />
        </linearGradient>
        
        <!-- Dark Background Gradient -->
        <radialGradient id="bgGrad" cx="50%" cy="50%" r="50%" fx="50%" fy="50%">
            <stop offset="0%" style="stop-color:#2a2a2a;stop-opacity:1" />
            <stop offset="100%" style="stop-color:#111111;stop-opacity:1" />
        </radialGradient>

        <!-- Shadow Filter -->
        <filter id="shadow" x="-20%" y="-20%" width="140%" height="140%">
            <feDropShadow dx="0" dy="4" stdDeviation="4" flood-opacity="0.4"/>
        </filter>
    </defs>
    
    <!-- Full Background (Square/Circle friendly) -->
    <rect width="512" height="512" fill="url(#bgGrad)" />
    
    <!-- Main Logo Group (Centered & Scaled Down) -->
    <g transform="translate(256, 220) scale(0.65) translate(-256, -256)" filter="url(#shadow)">
        <!-- Hexagon Base -->
        <path d="M256 20 L480 140 L480 372 L256 492 L32 372 L32 140 Z" fill="#0a0a0a" stroke="#333" stroke-width="4"/>
        
        <!-- Inner Logo Elements -->
        <g>
            <!-- Top Bar -->
            <rect x="196" y="120" width="120" height="45" rx="4" fill="white" />
            
            <!-- Center Pillar -->
            <rect x="226" y="175" width="60" height="180" fill="white" />
            
            <!-- Left Wing -->
            <path d="M130 140 L180 140 L180 340 L130 380 Z" fill="url(#blueGrad)" />
            
            <!-- Right Wing -->
            <path d="M382 140 L332 140 L332 340 L382 380 Z" fill="url(#blueGrad)" />
            
            <!-- Connectors -->
            <line x1="180" y1="200" x2="226" y2="200" stroke="#555" stroke-width="3" />
            <line x1="180" y1="300" x2="226" y2="300" stroke="#555" stroke-width="3" />
            <line x1="332" y1="200" x2="286" y2="200" stroke="#555" stroke-width="3" />
            <line x1="332" y1="300" x2="286" y2="300" stroke="#555" stroke-width="3" />
        </g>
    </g>

    <!-- Typography Section (Bottom) -->
    <g transform="translate(256, 420)">
        <!-- "i" Prefix -->
        <text x="-130" y="0" font-family="'Segoe UI', 'Roboto', 'Helvetica', sans-serif" font-weight="700" font-size="56" fill="url(#redGrad)" text-anchor="end">i</text>
        
        <!-- "XEBERLER" Main Text -->
        <text x="-125" y="0" font-family="'Segoe UI', 'Roboto', 'Helvetica', sans-serif" font-weight="800" font-size="56" fill="white" text-anchor="start" letter-spacing="2">XEBERLER</text>
        
        <!-- Underline Accent -->
        <rect x="-120" y="15" width="240" height="4" rx="2" fill="url(#blueGrad)" />
    </g>

</svg>